Coordinates
version=1
nRows=9
nColumns=63
inDegrees=yes

Units are S.I. units (second, meters, Newtons, ...)
If the header above contains a line with 'inDegrees', this indicates whether rotational values are in degrees (yes) or radians (no).

endheader
time	pelvis_tilt	pelvis_list	pelvis_rotation	pelvis_tx	pelvis_ty	pelvis_tz	hip_flexion_r	hip_adduction_r	hip_rotation_r	knee_angle_r	knee_angle_r_beta	ankle_angle_r	subtalar_angle_r	mtp_angle_r	hip_flexion_l	hip_adduction_l	hip_rotation_l	knee_angle_l	knee_angle_l_beta	ankle_angle_l	subtalar_angle_l	mtp_angle_l	L5_S1_Flex_Ext	L5_S1_Lat_Bending	L5_S1_axial_rotation	L4_L5_Flex_Ext	L4_L5_Lat_Bending	L4_L5_axial_rotation	L3_L4_Flex_Ext	L3_L4_Lat_Bending	L3_L4_axial_rotation	L2_L3_Flex_Ext	L2_L3_Lat_Bending	L2_L3_axial_rotation	L1_L2_Flex_Ext	L1_L2_Lat_Bending	L1_L2_axial_rotation	L1_T12_Flex_Ext	L1_T12_Lat_Bending	L1_T12_axial_rotation	Abs_r3	Abs_r2	Abs_r1	Abs_t1	Abs_t2	neck_flexion	neck_bending	neck_rotation	arm_flex_r	arm_add_r	arm_rot_r	elbow_flex_r	pro_sup_r	wrist_flex_r	wrist_dev_r	arm_flex_l	arm_add_l	arm_rot_l	elbow_flex_l	pro_sup_l	wrist_flex_l	wrist_dev_l
      4.44000000	      0.62985486	     -7.28415384	     88.77782243	      0.12374679	      1.01437801	      0.20699852	     -3.57536507	     -7.05965239	     -6.27368355	     13.28820534	      0.23192293	     31.63730752	      8.86952507	      0.00000000	     -2.44827961	     -1.04287052	    -16.36599589	     16.86072683	      0.29427520	     26.37503238	      6.27951249	      0.00000000	     -0.13581651	      1.44859049	      0.64110840	     -0.25222483	      1.92662535	      0.68117768	     -0.22313294	      3.52210292	      0.68117768	     -0.15522469	      3.52210292	      0.56096985	     -0.12611921	      2.95396573	      0.52090058	     -0.07760555	      2.24386667	      0.48083130	     -0.97012372	     16.38674534	      3.56565259	      0.00000000	      0.00000000	      1.11063688	      6.50235249	    -20.37337019	     39.00473032	    -22.78369713	      1.34103559	     83.62510551	     70.48167240	    -14.72332399	     22.11108174	     39.18663632	    -35.16464816	     29.79318187	     93.65673725	     89.21182370	     -4.12522571	     23.50611909
      4.46000000	      0.29985315	     -7.75451477	     88.66145617	      0.12356017	      1.01406009	      0.20746912	     -2.98442810	     -7.37094196	     -5.89117462	     13.58339692	      0.23707500	     31.44664776	      8.40835154	      0.00000000	     -1.71355175	     -0.77066513	    -16.37303592	     17.27852479	      0.30156715	     26.46839911	      6.44343711	      0.00000000	     -0.16374630	      1.49670557	      0.40558023	     -0.30409325	      1.99061841	      0.43092899	     -0.26901879	      3.63908992	      0.43092899	     -0.18714564	      3.63908992	      0.35488270	     -0.15205481	      3.05208200	      0.32953393	     -0.09356463	      2.31839693	      0.30418517	     -1.16962342	     16.93103274	      2.25571555	      0.00000000	      0.00000000	     -0.12013449	      6.14569238	    -17.53070693	     39.76776224	    -21.17400531	      1.71896147	     84.38238128	     69.98410395	    -15.47691373	     24.28681202	     36.43442747	    -34.30427684	     24.64765349	     94.71468137	     89.16362885	     -5.92354515	     21.20802022
      4.48000000	     -0.21976359	     -8.20530422	     88.63685449	      0.12391715	      1.01377983	      0.20818169	     -2.36654686	     -7.83200175	     -5.58963358	     13.97739284	      0.24395153	     31.38912074	      8.02235861	      0.00000000	     -1.03291559	     -0.32652763	    -16.28643715	     17.54404222	      0.30620130	     26.47589218	      6.69227651	      0.00000000	     -0.17902649	      1.47960478	      0.39434262	     -0.33247009	      1.96787436	      0.41898904	     -0.29412262	      3.59751106	      0.41898904	     -0.20460937	      3.59751106	      0.34504979	     -0.16624400	      3.01721006	      0.32040338	     -0.10229574	      2.29190780	      0.29575697	     -1.27876831	     16.73758517	      2.19321536	      0.00000000	      0.00000000	     -0.99180233	      6.62295997	    -16.97290465	     39.41802662	    -20.62212782	      0.81810357	     85.90166735	     69.05578177	    -16.44952946	     25.30561154	     35.54745331	    -31.90044492	     21.41164466	     95.21207225	     88.96307991	     -7.23938464	     20.23463760
      4.50000000	     -0.72872031	     -8.31714330	     88.72023988	      0.12422493	      1.01382787	      0.20929514	     -2.12040378	     -8.29082508	     -5.44721051	     14.28720057	      0.24935869	     31.29565371	      7.81681909	      0.00000000	     -0.66642428	      0.11020750	    -15.99180709	     17.84436773	      0.31144297	     26.63298735	      7.06226990	      0.00000000	     -0.22053312	      1.45344330	      0.44972126	     -0.40955206	      1.93307959	      0.47782884	     -0.36231386	      3.53390204	      0.47782884	     -0.25204730	      3.53390204	      0.39350611	     -0.20478705	      2.96386158	      0.36539853	     -0.12601262	      2.25138368	      0.33729095	     -1.57524602	     16.44164132	      2.50121475	      0.00000000	      0.00000000	     -1.70769991	      7.01372475	    -16.66615752	     39.75779921	    -20.66949247	      0.39270534	     86.24865242	     68.85584310	    -16.81293544	     25.17292669	     35.86856310	    -29.21611308	     19.72548798	     95.10462029	     88.48860787	     -7.98394761	     20.00883239
      4.52000000	     -0.93205296	     -8.57255900	     88.80627176	      0.12445437	      1.01381823	      0.21001023	     -1.74046168	     -8.44144999	     -5.27492185	     14.54185155	      0.25380319	     31.25185005	      7.62147627	      0.00000000	     -0.27344032	      0.27091078	    -15.98517038	     17.91495518	      0.31267495	     26.69530257	      7.33164656	      0.00000000	     -0.21407508	      1.44354728	      0.53662944	     -0.39755884	      1.91991788	      0.57016878	     -0.35170395	      3.50984086	      0.57016878	     -0.24466641	      3.50984086	      0.46955076	     -0.19879012	      2.94368162	      0.43601142	     -0.12232250	      2.23605474	      0.40247208	     -1.52911691	     16.32969556	      2.98457195	      0.00000000	      0.00000000	     -1.85646608	      7.82154452	    -17.03122441	     40.20370208	    -20.90885305	      0.05429215	     86.09834074	     68.74877831	    -17.23771027	     24.63084829	     35.88387604	    -26.17828336	     18.20305919	     95.00547131	     87.74863297	     -8.66041169	     19.65908079
      4.54000000	     -0.86450591	     -8.83890015	     88.68866069	      0.12486896	      1.01386141	      0.21043042	     -1.36071159	     -8.33808539	     -5.03587076	     14.64141143	      0.25554084	     31.17427094	      7.56583668	      0.00000000	      0.05738022	      0.17257108	    -16.10585919	     17.90101314	      0.31243162	     26.69083189	      7.60086216	      0.00000000	     -0.20222815	      1.44510138	      0.62558323	     -0.37555790	      1.92198484	      0.66468219	     -0.33224063	      3.51361950	      0.66468219	     -0.23112655	      3.51361950	      0.54738533	     -0.18778906	      2.94685074	      0.50828638	     -0.11555316	      2.23846204	      0.46918742	     -1.44449545	     16.34727584	      3.47930627	      0.00000000	      0.00000000	     -1.69139742	      8.71661981	    -17.85112147	     40.35294030	    -21.31828424	     -0.18855442	     86.20622272	     68.69020223	    -17.56438919	     23.97033973	     35.73402532	    -23.95860696	     17.15819422	     95.19148039	     86.96760042	     -8.95213030	     18.96333835
      4.56000000	     -0.68180634	     -9.06872957	     88.52183790	      0.12567980	      1.01365995	      0.21032123	     -1.05215034	     -8.10050285	     -4.78998032	     14.66526940	      0.25595724	     31.27548523	      7.56452115	      0.00000000	      0.20650024	     -0.04245404	    -16.39271973	     17.70786288	      0.30906051	     26.66152073	      7.82466621	      0.00000000	     -0.19050906	      1.44177055	      0.66938927	     -0.35379437	      1.91755483	      0.71122610	     -0.31298733	      3.50552091	      0.71122610	     -0.21773280	      3.50552091	      0.58571561	     -0.17690671	      2.94005850	      0.54387878	     -0.10885688	      2.23330258	      0.50204195	     -1.36078714	     16.30959679	      3.72294230	      0.00000000	      0.00000000	     -1.22160849	      9.17633903	    -18.53795799	     39.64760416	    -21.63205795	     -0.84059380	     87.39476759	     68.36791680	    -17.83106189	     23.91171655	     35.35036162	    -23.16184734	     16.65258843	     95.86163312	     86.62324754	     -8.75945358	     17.82415777
      4.58000000	     -0.73089378	     -9.23463213	     87.85586360	      0.12734464	      1.01324210	      0.21074400	     -0.61897605	     -8.08019008	     -3.84595614	     14.80658905	      0.25842373	     31.50025440	      7.20304314	      0.00000000	      0.16745513	     -0.10843089	    -17.77314604	     17.34654773	      0.30275437	     26.71454478	      9.04206339	      0.00000000	     -0.17927224	      1.39049925	      0.94254047	     -0.33292647	      1.84936400	      1.00144924	     -0.29452636	      3.38085987	      1.00144924	     -0.20489024	      3.38085987	      0.82472291	     -0.16647220	      2.83550606	      0.76581413	     -0.10243616	      2.15388333	      0.70690535	     -1.28052366	     15.72960558	      5.24212731	      0.00000000	      0.00000000	     -0.43184013	      9.70265968	    -20.51973370	     37.41058725	    -22.21567806	     -3.50295124	     90.43741932	     64.71159214	    -18.45833445	     26.44930988	     36.02280700	    -22.31687328	     17.36602948	     95.09997640	     86.93110098	     -7.29834007	     14.30947774
      4.60000000	     -0.70586545	     -9.32816590	     87.40867330	      0.12883091	      1.01242341	      0.21060414	     -0.41845096	     -7.96146834	     -2.97368820	     14.80880846	      0.25846247	     31.73556014	      6.79937412	      0.00000000	     -0.02501935	     -0.20098949	    -18.72843307	     16.89921525	      0.29494695	     26.93757730	      9.90736277	      0.00000000	     -0.16348790	      1.34779450	      1.10707411	     -0.30361338	      1.79256669	      1.17626624	     -0.26859427	      3.27702756	      1.17626624	     -0.18685032	      3.27702756	      0.96868985	     -0.15181486	      2.74842255	      0.89949772	     -0.09341699	      2.08773369	      0.83030558	     -1.16777772	     15.24652098	      6.15721408	      0.00000000	      0.00000000	      0.55682360	      9.87730501	    -21.65534896	     34.62720136	    -22.84094127	     -5.94855958	     94.05033735	     56.06805541	    -18.95384057	     28.25011004	     36.03556013	    -21.79479918	     17.55573736	     95.14614346	     87.52274283	     -7.45320137	     13.00275662
